<?xml version="1.0" encoding="UTF-8"?><svg id="Layer_2" xmlns="http://www.w3.org/2000/svg" viewBox="0 0 217.95 204.59"><defs><style>.cls-1{fill:#fff;}.cls-2{fill:orange;}.cls-3{fill:#1d2c49;}</style></defs><g id="Layer_1-2"><polygon class="cls-2" points="114.34 9.66 108.97 119.89 131.91 142.81 131.91 201.25 212.5 201.25 212.5 3.02 114.34 9.66"/><polygon class="cls-3" points="108.97 6.07 104.85 112.26 123.02 133.93 130.38 184.44 123.02 201.25 5.1 201.25 5.1 3.02 108.97 6.07"/><path class="cls-1" d="M0,0V204.59H217.95V0H0ZM119.78,164.73c.92,2.76,2.8,3.72,2.8,6.24s1.06,10.89-.12,13.68c-1,2.38-2,7.44-2.19,10.29h-53.02c-.41-.89-.72-2.17-.75-4.04-.07-5.67,.07-11.13,2.17-13.71,2.1-2.59,5.24-2.14,5.51-4.88,.27-2.75,1.26-5.82,2.2-7.25,.93-1.43,3.13-6.2,3.02-8.62-.11-2.42-.16-5.49,1.76-7.74,1.92-2.25,3.4-2.69,3.4-4.39s3.62-.77,3.95-4.34c.33-3.57-.38-4.72,1.21-7.58,1.59-2.86,1.37-3.79,2.53-6.2,1.15-2.42,2.49-1.91,3.25-3.97s1.14-3.89,1.14-3.89c1.42,4.72,2.06,4.59,3.99,5.13,1.93,.54,3.07-.82,4.46,2.5,1.39,3.32,5.53,11.42,8.63,12.65s6.43-.53,7.31,2.69,.23,6.96-.88,7.72c-1.11,.76-1.29,12.98-.38,15.73ZM10.29,9.66H104.85c-1.3,.9-2.47,2.11-3.45,3.73-4.51,7.55-1.35,11.83-1.35,13.52s-.9,4.73-2.48,2.37-7.52-1.12-10.55,1.7c-3.03,2.82-7.53,9.01-7.53,20.84v7.95s-.47,1.16-2.03,1.1c-.84-.03-2.41-.03-3.69-.02-1.11,0-2,.91-2,2.01v7.83c0,1.79-1.67,4.79-2.12,6.53-.41,1.57,.7,3.66,4.32,3.7,0,0,5.39,.07,3.07,.76-2.32,.7-5.6,4.3-4.71,9.64,.89,5.34,2.57,11.74,.75,12.48-2.15,.87-3.01,2.74-2.57,3.89,.44,1.15,1.29,.01,1.05,1.13-.24,1.12-1.59,1.35-1.69,1.86-.1,.51,.26,1.95,1.26,2.22,.99,.27,.65,.88-.42,.88s-.78,2.76,.63,2.87c1.41,.11,.53,3.76-.16,5.67s-2.23,9.92-1.68,16.76c-1.75,2.46-9.19,13.14-9.19,15.84s.21,5.27-1,7.19c-1.21,1.92-3.27,2.85-3.49,5.41-.21,2.56,.14,5.62,1.49,6.19,.85,1.21-.56,3.22-1.04,4.57-.48,1.35-1.53,6.45-2.02,9.11-.42,2.31-1.43,5.5-1.64,7.54H10.29V9.66ZM207.65,194.93h-56.96c-1.19-2.33-3.8-4.56-6.69-5.14-3.88-.78-8.08-6.62-8.29-8.38s-1.12-10.88,0-11.52,1.47-5.76,.98-7.79c-.49-2.04-.84-3.93-.21-5.97s1.91-9.48,1.7-13.96c-.21-4.49-1.19-7.08-2.73-9.75-1.54-2.66-8.61-22.99-16.82-30.13-.21-4.54-1.14-5.33-.65-7.48,.49-2.15,1.58-1.55,2.19-.23,.6,1.32,5.76,.96,6.2-7.21s1.07-15.1-.53-16.53c-1.6-1.42-3.69-1.21-3.69-2.26s.14-1.53,.91-1.53-.62-2.83,.38-2.63,11.9,7.69,16.31,7.84,10.81-3.43,11.63-7.45c.81-4.02,.38-8.03,2.55-8.03s2.89-1.23,1.75-3.46c-1.14-2.23-1.3-5.87-.57-7.22,.73-1.35,5.71-4.98,5.99-6.12,4.06-.5,18,0,18,0v-2.11h17v1.3h1.96v-1.33h5.84v-1.98h-5.85v-1.37h-1.93v1.33h-11.99v-2.92h-1.09v.75h-.87v-7.71h-2.07v7.92h-1.01v-1.01h-.98v-1.03h-40.94v-1.96h-2.16v-3.05h-1.99v4.57s-4.19,.38-5.84,1.18-4.06,.21-4.06-.97-1.18-3.98,.59-4.57,5.3-1.23,4.63-6.52c-.34-2.66-.94-5.15-2.16-7.2-2.23-1.36-2.09-2.72-3.76-3.64h85.24V194.93Z"/></g></svg>