<?xml version="1.0" encoding="UTF-8"?><svg id="Layer_1" xmlns="http://www.w3.org/2000/svg" viewBox="0 0 594.38 453.82"><defs><style>.cls-1{fill:#dadada;}.cls-2{opacity:.3;}</style></defs><path class="cls-2" d="M501.9,378.8l-.95,7.19-12.73,24.31-36.06,14.54-286.74,1.54-52.56-6.69-13.84-16.68-8.32-23.95c-222.43,35.66,10.17,77.32,206.51,74.76,197.77,2.59,429.77-39.5,204.7-75.02Z"/><polygon class="cls-2" points="97.6 163.85 295.51 270.08 496.81 162.45 295.51 5.24 97.6 163.85"/><path class="cls-2" d="M118.26,174.87v185.3c0,32.61,27.36,59.51,52.04,59.51s-24.23,6.69-24.23,6.69l-33.23-6.69-23.15-34.37V166.76l7.89-2.91,20.66,11.03Z"/><path class="cls-1" d="M286.1,3.27L87.55,160.14c-2.11,1.67-3.34,4.2-3.34,6.89v201.04c0,34.03,27.59,61.62,61.62,61.62H445.53c33.85,0,61.28-27.44,61.28-61.28V167.03c0-2.69-1.23-5.22-3.34-6.89L304.92,3.27c-5.52-4.36-13.3-4.36-18.82,0Zm15.34,9.74l186.77,148.42-192.71,103.66L102.8,161.42,289.58,13.01c3.47-2.76,8.39-2.76,11.87,0Zm143.5,406.68H146.08c-28.65,0-51.87-23.22-51.87-51.87V169.51l196.56,105.73,4.74,2.55,4.74-2.55,196.56-105.73v198.31c0,28.65-23.22,51.87-51.87,51.87Z"/><path class="cls-1" d="M208.66,325.72c0,8.49-6.89,15.38-15.38,15.38-20.4-.81-20.4-29.95,0-30.76,8.49,0,15.38,6.89,15.38,15.38Z"/><path class="cls-1" d="M415.9,325.72c0,8.49-6.89,15.38-15.38,15.38-20.4-.81-20.4-29.95,0-30.76,8.49,0,15.38,6.89,15.38,15.38Z"/><path class="cls-1" d="M341.01,398.81c-1.28,0-2.56-.49-3.54-1.46-14.88-14.88-66.79-14.88-81.67,0-4.78,4.52-11.62-2.24-7.07-7.07,18.8-18.8,77.01-18.8,95.81,0,3.16,3.03,.79,8.64-3.54,8.54Z"/><path class="cls-1" d="M454.17,293.52c-23.88,.82-66.5-19.63-73.67-40.01-1.03-2.56,.21-5.47,2.77-6.5,2.56-1.03,5.47,.21,6.5,2.77,7.06,19.1,56.47,40.19,75.13,32.02,2.56-1.03,5.47,.21,6.5,2.77,1.03,2.56-.21,5.47-2.77,6.5-4.07,1.64-8.98,2.44-14.47,2.44Z"/><path class="cls-1" d="M137.58,296.01c-5.75,0-10.98-.84-15.3-2.68-2.54-1.08-3.72-4.02-2.64-6.56,1.08-2.54,4.02-3.72,6.56-2.64,19.36,8.25,67.51-11.12,75.77-30.48,1.08-2.54,4.02-3.72,6.56-2.64,2.54,1.08,3.72,4.02,2.64,6.56-8.59,20.15-46.73,38.44-73.59,38.44Z"/></svg>