<svg width="20" height="20" viewBox="0 0 20 20" xmlns="http://www.w3.org/2000/svg" fill="#94E8B4">
<path fill-rule="evenodd" clip-rule="evenodd" d="M20 10C20 15.5228 15.5228 20 10 20C4.47715 20 0 15.5228 0 10C0 4.47715 4.47715 0 10 0C15.5228 0 20 4.47715 20 10ZM9.09082 4.03125C9.09082 3.47897 9.53854 3.03125 10.0908 3.03125H10.5151C11.0673 3.03125 11.5151 3.47897 11.5151 4.03125V9.53015L13.9597 10.5792C14.4583 10.7931 14.6953 11.3656 14.4939 11.8694L14.4442 11.9936C14.2356 12.5155 13.6379 12.7629 13.1214 12.5413L9.69169 11.0695C9.26812 10.8878 9.03333 10.4473 9.09575 10.0099C9.09249 9.97708 9.09082 9.94376 9.09082 9.91004V4.03125Z" />
</svg>
