<svg xmlns="http://www.w3.org/2000/svg" viewBox="0 0 14 14">
  <path d="M13.71,5.67l-1.7-.18c-.1-.34-.24-.67-.4-.97l1.08-1.33c.11-.13,.1-.32-.02-.44l-1.42-1.42c-.12-.12-.31-.13-.44-.02l-1.33,1.08c-.31-.17-.63-.3-.97-.4l-.18-1.7C8.31,.13,8.17,0,8,0h-2.01C5.83,0,5.69,.13,5.67,.29l-.18,1.7c-.34,.1-.67,.24-.97,.4l-1.33-1.08c-.13-.11-.32-.1-.44,.02l-1.42,1.42c-.12,.12-.13,.31-.02,.44l1.08,1.33c-.17,.31-.3,.63-.4,.97l-1.7,.18C.13,5.69,0,5.83,0,6v2.01C0,8.17,.13,8.31,.29,8.33l1.7,.18c.1,.34,.24,.67,.4,.97l-1.08,1.33c-.11,.13-.1,.32,.02,.44l1.42,1.42c.12,.12,.31,.13,.44,.02l1.33-1.08c.31,.17,.63,.3,.97,.4l.18,1.7c.02,.17,.16,.29,.32,.29h2.01c.17,0,.31-.13,.32-.29l.18-1.7c.34-.1,.67-.24,.97-.4l1.33,1.08c.13,.11,.32,.1,.44-.02l1.42-1.42c.12-.12,.13-.31,.02-.44l-1.08-1.33c.17-.31,.3-.63,.4-.97l1.7-.18c.17-.02,.29-.16,.29-.32v-2.01c0-.17-.13-.31-.29-.32Zm-6.71,3.74c-1.33,0-2.41-1.08-2.41-2.41s1.08-2.41,2.41-2.41,2.41,1.08,2.41,2.41-1.08,2.41-2.41,2.41Z"/>
</svg>