<svg viewBox="0 0 13 13" xmlns="http://www.w3.org/2000/svg">
<path d="M1.14645 1.85355L1.5 1.5L1.14645 1.85355ZM5.79289 6.5L6.14645 6.85355L6.5 6.5L6.14645 6.14645L5.79289 6.5ZM1.14645 1.14645L1.5 1.5L1.14645 1.14645ZM1.85355 1.14645L1.5 1.5L1.85355 1.14645ZM6.5 5.79289L6.14645 6.14645L6.5 6.5L6.85355 6.14645L6.5 5.79289ZM11.1464 1.14645L11.5 1.5V1.5L11.1464 1.14645ZM11.8536 1.14645L12.2071 0.792893V0.792893L11.8536 1.14645ZM11.8536 1.85355L12.2071 2.20711V2.20711L11.8536 1.85355ZM7.20711 6.5L6.85355 6.14645L6.5 6.5L6.85355 6.85355L7.20711 6.5ZM11.8536 11.1464L11.5 11.5L11.8536 11.1464ZM11.1464 11.8536L11.5 11.5L11.1464 11.8536ZM6.5 7.20711L6.85355 6.85355L6.5 6.5L6.14645 6.85355L6.5 7.20711ZM1.85355 11.8536L2.20711 12.2071H2.20711L1.85355 11.8536ZM1.14645 11.8536L0.792893 12.2071H0.792893L1.14645 11.8536ZM1.14645 11.1464L1.5 11.5H1.5L1.14645 11.1464ZM0.792893 2.20711L5.43934 6.85355L6.14645 6.14645L1.5 1.5L0.792893 2.20711ZM0.792893 0.792893C0.402369 1.18342 0.402369 1.81658 0.792893 2.20711L1.5 1.5V1.5L0.792893 0.792893ZM2.20711 0.792893C1.81658 0.402369 1.18342 0.402369 0.792893 0.792893L1.5 1.5H1.5L2.20711 0.792893ZM6.85355 5.43934L2.20711 0.792893L1.5 1.5L6.14645 6.14645L6.85355 5.43934ZM10.7929 0.792893L6.14645 5.43934L6.85355 6.14645L11.5 1.5L10.7929 0.792893ZM12.2071 0.792893C11.8166 0.402369 11.1834 0.402369 10.7929 0.792893L11.5 1.5L11.5 1.5L12.2071 0.792893ZM12.2071 2.20711C12.5976 1.81658 12.5976 1.18342 12.2071 0.792893L11.5 1.5L11.5 1.5L12.2071 2.20711ZM7.56066 6.85355L12.2071 2.20711L11.5 1.5L6.85355 6.14645L7.56066 6.85355ZM12.2071 10.7929L7.56066 6.14645L6.85355 6.85355L11.5 11.5L12.2071 10.7929ZM12.2071 12.2071C12.5976 11.8166 12.5976 11.1834 12.2071 10.7929L11.5 11.5L11.5 11.5L12.2071 12.2071ZM10.7929 12.2071C11.1834 12.5976 11.8166 12.5976 12.2071 12.2071L11.5 11.5L11.5 11.5L10.7929 12.2071ZM6.14645 7.56066L10.7929 12.2071L11.5 11.5L6.85355 6.85355L6.14645 7.56066ZM2.20711 12.2071L6.85355 7.56066L6.14645 6.85355L1.5 11.5L2.20711 12.2071ZM0.792893 12.2071C1.18342 12.5976 1.81658 12.5976 2.20711 12.2071L1.5 11.5L1.5 11.5L0.792893 12.2071ZM0.792893 10.7929C0.402369 11.1834 0.402369 11.8166 0.792893 12.2071L1.5 11.5L1.5 11.5L0.792893 10.7929ZM5.43934 6.14645L0.792893 10.7929L1.5 11.5L6.14645 6.85355L5.43934 6.14645Z"/>
</svg>
