<svg xmlns="http://www.w3.org/2000/svg" viewBox="0 0 14 14">
  <path d="M2.45,12.17c1.89-.19,3.26-2.03,4.02-2.63,.45-.35,1.06-.6,1.83-.87l.61-.21c.16-.05,.32-.05,.48,0,.28,.1,.73,.26,1,.29,1.72,.03,2.81-.05,3.45-.12,.19-.02,.22-.34,.03-.4l-2.97-1-.29,.44-.22-.23v-.89l.22-.23,.29,.44,2.97-1c.19-.06,.16-.38-.03-.4-.64-.08-1.73-.15-3.45-.12-.27,.03-.73,.19-1,.29-.16,.06-.32,.06-.48,0l-.61-.21c-.78-.27-1.39-.52-1.83-.87-.76-.6-2.13-2.44-4.02-2.63-.84-.06-1.58-.13-1.93-.05C.22,1.85,0,2.15,0,2.5c0,.41,.28,.75,.64,.75,.23,0,.65,0,.65,0,3.26-.02,3.15,2.54,6.35,3.3,.09,.02,.14,.13,.11,.23-.02,.08-.04,.16-.04,.23s.01,.15,.04,.23c.03,.1-.02,.2-.11,.23-3.2,.76-3.09,3.32-6.35,3.3,0,0-.42,0-.65,0-.36,0-.64,.34-.64,.75,0,.35,.22,.66,.52,.72,.35,.08,1.09,0,1.93-.05Z"/>
</svg>