<svg xmlns="http://www.w3.org/2000/svg" viewBox="0 0 14 14">
  <path d="M14,9.41l-3.48-2.93,2.02-3.19-3.82,.95L8.59,.05l-2.1,3.95L3.06,1.32l.83,4.33H0l3.25,2.48L1.21,12.14l3.37-1.27,.06,3.06,2.74-2.42,3.25,1.59-.45-3.18,3.82-.51Zm-6.66,.78l-1.56,1.28-.02-1.93-2.54,.78,1.52-2.17-1.6-1.59h1.95s-.22-2.21-.22-2.21l1.69,.88,1.25-1.74,.18,1.86,2.1-.27-1.08,1.87,1.8,1.59-2.09,.35,.31,2.08-1.68-.79Zm-.21-1.5l-.7,.57v-.86s-1.15,.35-1.15,.35l.68-.97-.72-.71h.87s-.1-.99-.1-.99l.75,.39,.56-.78,.08,.83,.94-.12-.48,.84,.8,.71-.93,.16,.14,.93-.75-.35Z"/>
</svg>