<svg width="12" height="10" viewBox="0 0 12 10" fill="none" xmlns="http://www.w3.org/2000/svg">
<path fill-rule="evenodd" clip-rule="evenodd" d="M0.235746 4.54812H4.99489V3.10564V3.10464H4.99571C4.9959 2.2503 5.34482 1.47421 5.90669 0.912067C6.46883 0.350016 7.24538 0.000911976 8.10008 0.000911976V0H8.10054H8.10163V0.000820778C8.95597 0.00100317 9.73206 0.349925 10.2942 0.911794C10.8563 1.47394 11.2054 2.25048 11.2054 3.10519H11.2065V3.10555V4.56107V4.78021H10.9873H10.0926H9.87333V4.56107V3.08868V3.08786H9.87442C9.87424 2.60159 9.67424 2.15865 9.35259 1.83708C9.03084 1.51507 8.58762 1.31534 8.10099 1.31507V1.31589H8.10054H8.09953V1.31507C7.61309 1.31525 7.17014 1.51479 6.8483 1.83645L6.84876 1.8369C6.52692 2.15865 6.32693 2.60187 6.32693 3.08832H6.32775V3.08877V4.54821H7.60333C7.73301 4.54821 7.83907 4.65436 7.83907 4.78395V9.76453C7.83907 9.89421 7.73301 10.0001 7.60333 10.0001H0.235746C0.10588 10.0001 0 9.89421 0 9.76453V4.78386C0 4.65427 0.10588 4.54812 0.235746 4.54812ZM4.00877 7.27328L4.3825 8.99765L3.35817 9.00175L3.65885 7.25422C3.37905 7.16476 3.17596 6.90247 3.17596 6.59286C3.17596 6.20965 3.48703 5.89857 3.87034 5.89857C4.25355 5.89857 4.56462 6.20965 4.56462 6.59286C4.56471 6.92874 4.32578 7.20899 4.00877 7.27328Z" fill="white"/>
</svg>
