<svg xmlns="http://www.w3.org/2000/svg" viewBox="0 0 14 14">
  <path d="M12.25,2.62C11.59,1.19,10.98,0,7,0S2.41,1.19,1.75,2.62C1.19,3.85-.12,4.22,.03,5.97c.31,3.63,1.32,3.7,3.31,5.72,1.19,1.21,.59,2.31,3.67,2.31s2.48-1.1,3.67-2.31c1.98-2.02,2.99-2.09,3.31-5.72,.15-1.75-1.16-2.12-1.72-3.35ZM2.73,8.93c-.56-.5-.84-1.24-1.07-1.94-.02-.07-.01-.14-.02-.17,0-.67,.45-1.2,1.1-1.3,.73-.12,1.47-.22,2.2-.31,.41-.05,.71,.16,.9,.51,.23,.44,.29,.91,.03,1.35-.35,.58-.72,1.15-1.14,1.68-.53,.69-1.35,.76-2.01,.18Zm4.28,2.59s0,0-.01,0c0,0,0,0-.01,0-.62,.01-1.65,.38-1.43-.71,.12-.61,.59-1.16,1.04-1.71,.1-.13,.25-.19,.4-.19,.15,0,.3,.06,.4,.19,.45,.55,.92,1.09,1.04,1.71,.22,1.08-.81,.72-1.43,.71Zm5.32-4.53c-.23,.7-.51,1.43-1.07,1.94-.66,.58-1.47,.5-2.01-.18-.41-.53-.79-1.1-1.14-1.68-.26-.43-.21-.91,.03-1.35,.19-.35,.49-.56,.9-.51,.74,.09,1.47,.19,2.2,.31,.65,.11,1.1,.64,1.1,1.3,0,.03,0,.1-.02,.17Z"/>
</svg>