<svg viewBox="0 0 10 10" xmlns="http://www.w3.org/2000/svg">
<path d="M2.71016 0.547907C4.58262 -0.409241 6.95304 -0.117403 8.53367 1.46322C10.4888 3.41731 10.4898 6.57855 8.53469 8.53367C6.57957 10.4888 3.41833 10.4888 1.46322 8.53367C-0.117403 6.95304 -0.409241 4.5816 0.547907 2.71016L0.38158 1.08771L0.297906 0.297906L1.08771 0.38158L2.71016 0.547907ZM2.04485 7.95101C3.66629 9.57347 6.32855 9.57347 7.95101 7.95101C9.57347 6.32957 9.57347 3.66731 7.94999 2.04485C6.91019 1.00505 5.49589 0.630561 4.16527 0.921379L4.41528 1.29587C4.62344 1.25403 4.78977 1.25403 4.99793 1.25403C6.4959 1.25403 7.78468 2.12751 8.36734 3.41731L7.41019 4.37446C7.5357 4.91528 7.49386 5.49793 7.2857 5.99692L6.74488 5.28977L5.91324 4.20813L3.7918 1.46322L3.66731 1.29689L1.33771 1.04689L2.502 2.21118L6.32855 6.03773L6.91121 6.62039C6.87039 6.70304 6.82855 6.74488 6.78672 6.78672C6.70406 6.82753 6.66223 6.86937 6.62039 6.91121L6.03773 6.32855L1.04689 1.33771L1.29689 3.62548L5.24895 6.74488L5.9561 7.2857C5.45712 7.53468 4.87446 7.53468 4.33364 7.41019L3.37649 8.36734C2.12853 7.78468 1.25505 6.49488 1.25505 4.99793C1.25505 4.78977 1.25505 4.62344 1.29689 4.45711L0.922399 4.16629C0.672398 5.49793 1.00505 6.91121 2.04485 7.95101ZM7.86866 4.45779L8.53397 3.79248C8.99213 5.12412 8.70029 6.53841 7.66151 7.57618C6.62171 8.61598 5.12476 8.94863 3.83496 8.49149L4.50027 7.82618C5.41558 7.99352 6.37171 7.74352 7.07886 7.03638C7.74417 6.32923 8.03498 5.3731 7.86866 4.45779Z" />
</svg>
