<svg viewBox="0 0 24 24" xmlns="http://www.w3.org/2000/svg">
<path d="M10.5858 12L11.2929 12.7071L12 12L11.2929 11.2929L10.5858 12ZM12 10.5858L11.2929 11.2929L12 12L12.7071 11.2929L12 10.5858ZM13.4142 12L12.7071 11.2929L12 12L12.7071 12.7071L13.4142 12ZM12 13.4142L12.7071 12.7071L12 12L11.2929 12.7071L12 13.4142ZM0.585787 3.41423L9.8787 12.7071L11.2929 11.2929L2 2L0.585787 3.41423ZM0.585787 0.585787C-0.195262 1.36684 -0.195262 2.63317 0.585787 3.41423L2 2L0.585787 0.585787ZM3.41423 0.585787C2.63317 -0.195262 1.36684 -0.195262 0.585787 0.585787L2 2L3.41423 0.585787ZM12.7071 9.8787L3.41423 0.585787L2 2L11.2929 11.2929L12.7071 9.8787ZM20.5858 0.585787L11.2929 9.8787L12.7071 11.2929L22 2L20.5858 0.585787ZM23.4142 0.585787C22.6332 -0.195262 21.3668 -0.195262 20.5858 0.585787L22 2L23.4142 0.585787ZM23.4142 3.41423C24.1952 2.63317 24.1952 1.36684 23.4142 0.585787L22 2L23.4142 3.41423ZM14.1213 12.7071L23.4142 3.41423L22 2L12.7071 11.2929L14.1213 12.7071ZM23.4142 20.5858L14.1213 11.2929L12.7071 12.7071L22 22L23.4142 20.5858ZM23.4142 23.4142C24.1952 22.6332 24.1952 21.3668 23.4142 20.5858L22 22L23.4142 23.4142ZM20.5858 23.4142C21.3668 24.1952 22.6332 24.1952 23.4142 23.4142L22 22L20.5858 23.4142ZM11.2929 14.1213L20.5858 23.4142L22 22L12.7071 12.7071L11.2929 14.1213ZM3.41423 23.4142L12.7071 14.1213L11.2929 12.7071L2 22L3.41423 23.4142ZM0.585787 23.4142C1.36684 24.1952 2.63317 24.1952 3.41423 23.4142L2 22L0.585787 23.4142ZM0.585787 20.5858C-0.195262 21.3668 -0.195262 22.6332 0.585787 23.4142L2 22L0.585787 20.5858ZM9.8787 11.2929L0.585787 20.5858L2 22L11.2929 12.7071L9.8787 11.2929Z" />
</svg>
