<svg viewBox="0 0 24 24" xmlns="http://www.w3.org/2000/svg">
<path d="M0.0038171 3.54951C0.0038171 2.86496 0.221821 2.30938 0.490433 2.30938H8.49161C8.76022 2.30938 8.97822 2.86496 8.97822 3.54951C8.97822 4.23406 8.76022 4.78963 8.49161 4.78963H0.490433C0.221821 4.78963 0.0038171 4.23467 0.0038171 3.54951Z" />
<path d="M9.64156 20.9313C9.64156 20.2468 9.85824 19.6912 10.1252 19.6912H23.5127C23.7796 19.6912 23.9963 20.2468 23.9963 20.9313C23.9963 21.616 23.7796 22.1716 23.5127 22.1716H10.1252C9.858 22.1716 9.64156 21.616 9.64156 20.9313Z" />
<path d="M0.00292969 12.2396C0.00292969 11.5551 0.234062 10.9995 0.518848 10.9995H16.0165C16.3013 10.9995 16.5325 11.5551 16.5325 12.2396C16.5325 12.9242 16.3013 13.4797 16.0165 13.4797H0.518848C0.234062 13.4797 0.00292969 12.9242 0.00292969 12.2396Z" />
<path fill-rule="evenodd" clip-rule="evenodd" d="M18.2807 8.69177C16.6141 8.69177 15.2586 10.1754 15.2586 11.9988C15.2586 13.8225 16.6141 15.3058 18.2807 15.3058C19.9472 15.3058 21.3027 13.8225 21.3027 11.9988C21.3027 10.1751 19.9472 8.69177 18.2807 8.69177ZM18.2805 10.027C19.2742 10.027 20.0827 10.9116 20.0827 11.9992C20.0827 13.0867 19.2742 13.9713 18.2805 13.9713C17.2866 13.9713 16.4782 13.0867 16.4782 11.9992C16.4782 10.9116 17.2866 10.027 18.2805 10.027Z" />
<path fill-rule="evenodd" clip-rule="evenodd" d="M11.032 0C9.3654 0 8.00991 1.48364 8.00991 3.30699C8.00991 5.13034 9.3654 6.61398 11.032 6.61398C12.6985 6.61398 14.054 5.13068 14.054 3.30699C14.054 1.48331 12.6982 0 11.032 0ZM11.032 1.3351C12.0258 1.3351 12.8342 2.21975 12.8342 3.30728C12.8342 4.39482 12.0258 5.27946 11.032 5.27946C10.0381 5.27946 9.2297 4.39482 9.2297 3.30728C9.2297 2.21975 10.0381 1.3351 11.032 1.3351Z" />
<path fill-rule="evenodd" clip-rule="evenodd" d="M7.7304 17.3861C6.06536 17.3861 4.71109 18.8694 4.71109 20.6929C4.71109 22.5167 6.06567 24 7.7304 24C9.39512 24 10.7494 22.5167 10.7494 20.6929C10.7494 18.8694 9.39512 17.3861 7.7304 17.3861ZM7.73069 18.7211C8.72362 18.7211 9.53099 19.6055 9.53099 20.693C9.53099 21.7807 8.72362 22.6655 7.73069 22.6655C6.73776 22.6655 5.93008 21.7807 5.93008 20.693C5.93008 19.6055 6.73776 18.7211 7.73069 18.7211Z" />
<path d="M12.9876 3.54951C12.9876 2.86496 13.2264 2.30938 13.5207 2.30938H23.4632C23.7575 2.30938 23.9963 2.86496 23.9963 3.54951C23.9963 4.23406 23.7575 4.78963 23.4632 4.78963H13.5207C13.2262 4.78963 12.9876 4.23467 12.9876 3.54951Z" />
<path d="M20.2188 12.2396C20.2188 11.5551 20.4588 10.9995 20.7545 10.9995H23.4606C23.7563 10.9995 23.9963 11.5551 23.9963 12.2396C23.9963 12.9242 23.7563 13.4797 23.4606 13.4797H20.7545C20.4588 13.4797 20.2188 12.9242 20.2188 12.2396Z" />
<path d="M0.00360754 20.9313C0.00360754 20.2468 0.291038 19.6912 0.645194 19.6912H5.40032C5.75447 19.6912 6.0419 20.2468 6.0419 20.9313C6.0419 21.616 5.75447 22.1716 5.40032 22.1716H0.645194C0.291038 22.1716 0.00360754 21.616 0.00360754 20.9313Z" />
</svg>
