<svg width="14" height="14" viewBox="0 0 14 14" xmlns="http://www.w3.org/2000/svg" fill="white">
<path d="M-0.000318386 2.07059C-0.000318386 1.67126 0.126853 1.34717 0.283547 1.34717L4.951 1.34717C5.10769 1.34717 5.23486 1.67126 5.23486 2.07059C5.23486 2.46992 5.10769 2.79401 4.951 2.79401L0.283547 2.79401C0.126853 2.79401 -0.000318386 2.47028 -0.000318386 2.07059Z" />
<path d="M5.62182 12.2102C5.62182 11.8109 5.74822 11.4868 5.90397 11.4868H13.7135C13.8692 11.4868 13.9956 11.8109 13.9956 12.2102C13.9956 12.6096 13.8692 12.9337 13.7135 12.9337H5.90397C5.74808 12.9337 5.62182 12.6096 5.62182 12.2102Z" />
<path d="M-0.000836052 7.13992C-0.000836052 6.7406 0.133994 6.4165 0.300123 6.4165L9.34064 6.4165C9.50677 6.4165 9.6416 6.7406 9.6416 7.13992C9.6416 7.53925 9.50677 7.86334 9.34064 7.86334L0.300123 7.86334C0.133994 7.86334 -0.000836052 7.53925 -0.000836052 7.13992Z" />
<path fill-rule="evenodd" clip-rule="evenodd" d="M10.6614 5.07031C9.68924 5.07031 8.89851 5.93579 8.89851 6.99943C8.89851 8.06327 9.68924 8.92855 10.6614 8.92855C11.6336 8.92855 12.4243 8.06327 12.4243 6.99943C12.4243 5.93559 11.6336 5.07031 10.6614 5.07031ZM10.6613 5.8492C11.241 5.8492 11.7126 6.36525 11.7126 6.99966C11.7126 7.63407 11.241 8.15012 10.6613 8.15012C10.0815 8.15012 9.60992 7.63407 9.60992 6.99966C9.60992 6.36525 10.0815 5.8492 10.6613 5.8492Z" />
<path fill-rule="evenodd" clip-rule="evenodd" d="M6.4329 0C5.46072 0 4.67 0.865475 4.67 1.92912C4.67 2.99276 5.46072 3.85824 6.4329 3.85824C7.40507 3.85824 8.1958 2.99296 8.1958 1.92912C8.1958 0.865281 7.4049 0 6.4329 0ZM6.4329 0.778825C7.01264 0.778825 7.48423 1.29488 7.48423 1.92929C7.48423 2.5637 7.01264 3.07975 6.4329 3.07975C5.85315 3.07975 5.38156 2.5637 5.38156 1.92929C5.38156 1.29488 5.85315 0.778825 6.4329 0.778825Z" />
<path fill-rule="evenodd" clip-rule="evenodd" d="M4.50695 10.1421C3.53566 10.1421 2.74565 11.0074 2.74565 12.0711C2.74565 13.135 3.53584 14.0003 4.50695 14.0003C5.47806 14.0003 6.26807 13.135 6.26807 12.0711C6.26807 11.0074 5.47806 10.1421 4.50695 10.1421ZM4.50712 10.9209C5.08634 10.9209 5.55732 11.4368 5.55732 12.0712C5.55732 12.7057 5.08634 13.2218 4.50712 13.2218C3.9279 13.2218 3.45674 12.7057 3.45674 12.0712C3.45674 11.4368 3.9279 10.9209 4.50712 10.9209Z" />
<path d="M7.5737 2.07059C7.5737 1.67126 7.71304 1.34717 7.88472 1.34717L13.6846 1.34717C13.8563 1.34717 13.9956 1.67126 13.9956 2.07059C13.9956 2.46992 13.8563 2.79401 13.6846 2.79401L7.88472 2.79401C7.71288 2.79401 7.5737 2.47028 7.5737 2.07059Z" />
<path d="M11.792 7.13992C11.792 6.7406 11.932 6.4165 12.1045 6.4165H13.6831C13.8556 6.4165 13.9956 6.7406 13.9956 7.13992C13.9956 7.53925 13.8556 7.86334 13.6831 7.86334H12.1045C11.932 7.86334 11.792 7.53925 11.792 7.13992Z" />
<path d="M-0.000440631 12.2102C-0.000440631 11.8109 0.167231 11.4868 0.373826 11.4868H3.14771C3.3543 11.4868 3.52197 11.8109 3.52197 12.2102C3.52197 12.6096 3.3543 12.9337 3.14771 12.9337H0.373826C0.167231 12.9337 -0.000440631 12.6096 -0.000440631 12.2102Z" />
</svg>
