<svg viewBox="0 0 24 24" xmlns="http://www.w3.org/2000/svg">
<path d="M7.30801 0C3.27233 0 0 3.27139 0 7.30801C0 11.3437 3.27233 14.617 7.30895 14.617C11.3456 14.617 14.617 11.3437 14.617 7.30801C14.617 3.27139 11.3437 0 7.30801 0ZM4.9693 7.40343C3.625 7.40343 2.53516 6.31359 2.53516 4.96836C2.53516 3.625 3.625 2.53516 4.9693 2.53516C6.31359 2.53516 7.40343 3.625 7.40343 4.96836C7.40343 6.31359 6.31359 7.40343 4.9693 7.40343Z" />
<path d="M23.7342 19.0951L15.3354 10.6973C15.081 11.3016 14.7517 11.8657 14.3719 12.3924L21.6883 19.7088C22.0073 20.0287 22.0073 20.5489 21.6874 20.8688C21.3684 21.1878 20.8473 21.1878 20.5283 20.8688L13.2904 13.63C12.3914 14.4804 11.3119 15.1408 10.1145 15.5496V16.85C10.1145 17.2616 10.4503 17.5983 10.8629 17.5983H12.9209V19.6564C12.9209 20.068 13.2568 20.4048 13.6693 20.4048H15.7274V22.4629C15.7274 22.8745 16.0632 23.2113 16.4758 23.2113H18.5722L19.0951 23.7342C19.4151 24.0541 22.6191 24.2225 23.4208 23.4217C24.2225 22.6191 24.0532 19.4141 23.7342 19.0951Z" />
</svg>