<svg viewBox="0 0 10 10" xmlns="http://www.w3.org/2000/svg">
<path d="M6.03724 3.8595C6.40061 3.47459 6.85194 3.23041 7.34235 3.15418C8.77839 2.92949 10.0621 4.06858 9.99759 5.50656C9.9683 6.13575 9.72799 6.65739 9.26686 7.08943C8.69441 7.62475 7.90307 7.82791 7.14694 7.63648L6.98868 7.59546L6.92806 7.65403C6.86755 7.71271 6.86163 7.71464 6.6702 7.71464H6.47285L6.46112 7.89046C6.44357 8.1522 6.35561 8.31833 6.15632 8.46486L6.06254 8.53323L5.74213 8.53904L5.42172 8.54486L5.4159 8.74996L5.41009 8.95517L5.31039 9.0568L5.20876 9.15844L5.00365 9.16425L4.79651 9.17007L4.79069 9.37517L4.78477 9.58038L4.68314 9.68202C4.58936 9.77977 4.57763 9.78559 4.48385 9.78559C4.39007 9.78559 4.38038 9.7914 4.27875 9.89304L4.17323 10.0005H3.86843C3.49914 10.0005 3.39761 9.97702 3.27057 9.85977C3.14159 9.74059 3.12598 9.66824 3.12598 9.16221V8.74017L4.35691 7.50923L5.58968 6.27636L5.56039 6.20799C5.54478 6.17085 5.51356 6.06932 5.49202 5.98136C5.29866 5.22329 5.50182 4.42808 6.03724 3.8595ZM9.13003 4.36358C9.08319 4.22869 8.89564 4.03919 8.76472 3.99623C8.63574 3.95327 8.43645 3.95521 8.31726 4.00215C8.03012 4.11348 7.86399 4.43001 7.94022 4.72114C8.06522 5.21543 8.64553 5.36982 8.99911 5.00635C9.15156 4.84818 9.20625 4.5844 9.13003 4.36358ZM3.75119 9.58038L5.20682 8.12475L6.66245 6.66912L6.55887 6.56555L6.45724 6.46392L5.00161 7.91954L3.54598 9.37517L3.64955 9.47681L3.75119 9.58038ZM1.18593 1.33619C1.60604 0.607411 2.29768 0.132609 3.11045 0.0173016C3.30188 -0.010046 3.77474 0.0114851 3.96648 0.0544453C5.04108 0.298632 5.8265 1.14466 6.00823 2.25447C6.02773 2.37162 6.03752 2.57294 6.03752 2.85621V3.28214L5.84997 3.46C5.60374 3.69632 5.43772 3.92102 5.29506 4.20827C5.05475 4.6947 5.01955 4.87062 5.00781 5.64431L4.99996 6.24023L3.74555 7.49464L2.49115 8.75098H1.24655H0V6.35748V3.96398L0.416127 3.9601L0.830316 3.95429L0.841949 3.10438L0.851745 2.25447L0.912358 2.02977C0.986644 1.75038 1.07063 1.53936 1.18593 1.33619ZM4.57383 2.401C4.51332 2.01804 4.10689 1.60375 3.68096 1.49242C3.44453 1.43191 3.19055 1.46507 2.95024 1.59212C2.61217 1.76987 2.35044 2.0962 2.3035 2.401C2.2937 2.47325 2.28788 2.83662 2.28982 3.24112L2.29564 3.95429H3.43861H4.58169L4.5875 3.24112C4.58944 2.83672 4.58363 2.47325 4.57383 2.401Z" />
</svg>
