<svg viewBox="0 0 24 24" xmlns="http://www.w3.org/2000/svg">
<path d="M14.4895 9.25639C15.3616 8.3326 16.4448 7.74657 17.6218 7.56361C21.0683 7.02435 24.1492 9.75819 23.9944 13.2094C23.9241 14.7194 23.3474 15.9714 22.2406 17.0083C20.8667 18.2931 18.9675 18.7807 17.1528 18.3212L16.773 18.2228L16.6275 18.3633C16.4822 18.5042 16.468 18.5088 16.0086 18.5088H15.535L15.5068 18.9308C15.4647 19.559 15.2536 19.9577 14.7753 20.3093L14.5502 20.4734L13.7812 20.4874L13.0122 20.5013L12.9983 20.9936L12.9843 21.4861L12.745 21.73L12.5011 21.9739L12.0089 21.9879L11.5117 22.0019L11.4977 22.4941L11.4835 22.9866L11.2396 23.2306C11.0145 23.4652 10.9864 23.4791 10.7613 23.4791C10.5363 23.4791 10.513 23.4931 10.2691 23.737L10.0158 23.9949H9.2843C8.398 23.9949 8.15433 23.9386 7.84943 23.6572C7.53987 23.3711 7.50241 23.1975 7.50241 21.983V20.9701L10.4567 18.0158L13.4153 15.0569L13.345 14.8928C13.3076 14.8037 13.2326 14.56 13.181 14.3489C12.7169 12.5295 13.2045 10.621 14.4895 9.25639ZM21.9122 10.4662C21.7998 10.1425 21.3497 9.68765 21.0355 9.58455C20.7259 9.48144 20.2476 9.4861 19.9616 9.59876C19.2724 9.86595 18.8737 10.6256 19.0567 11.3243C19.3567 12.5107 20.7494 12.8812 21.598 12.0089C21.9639 11.6292 22.0952 10.9962 21.9122 10.4662ZM9.00293 22.9866L12.4965 19.4931L15.99 15.9995L15.7414 15.751L15.4975 15.5071L12.004 19.0006L8.51042 22.4941L8.75899 22.738L9.00293 22.9866ZM2.84625 3.2004C3.85453 1.45132 5.51447 0.311786 7.46514 0.0350464C7.92457 -0.0305883 9.05945 0.0210867 9.51963 0.124192C12.0987 0.710245 13.9837 2.74073 14.4199 5.40429C14.4667 5.68546 14.4902 6.16863 14.4902 6.84848V7.87072L14.04 8.29759C13.4491 8.86476 13.0506 9.40404 12.7082 10.0934C12.1315 11.2609 12.047 11.6831 12.0188 13.54L12 14.9702L8.98939 17.9808L5.97881 20.996H2.99174H0V15.2516V9.50715L0.998713 9.49784L1.99277 9.48389L2.02069 7.44409L2.0442 5.40429L2.18968 4.86501C2.36796 4.19447 2.56953 3.68802 2.84625 3.2004ZM10.9773 5.75597C10.8321 4.83686 9.85661 3.84255 8.83437 3.57536C8.26694 3.43013 7.65738 3.50972 7.08063 3.81464C6.26926 4.24124 5.6411 5.02444 5.52844 5.75597C5.50492 5.92937 5.49095 6.80146 5.49561 7.77227L5.50958 9.48389H8.25273H10.9961L11.0101 7.77227C11.0147 6.8017 11.0008 5.92937 10.9773 5.75597Z" />
</svg>
