<svg viewBox="0 0 24 24" xmlns="http://www.w3.org/2000/svg">
<path d="M11.9829 24C13.92 24 15.4972 22.4229 15.4972 20.4857H8.46859C8.46859 22.4229 10.0457 24 11.9829 24Z" />
<path d="M22.5943 17.5714L19.5086 14.1257V9.30857C19.5086 5.60571 16.8343 2.53714 13.32 1.92V1.32C13.32 0.582857 12.72 0 12 0C11.28 0 10.68 0.6 10.68 1.32V1.92C7.16574 2.55429 4.49145 5.62286 4.49145 9.30857V14.1257L1.40574 17.5714C0.874309 18.1714 1.28574 19.1143 2.09145 19.1143H21.9086C22.7143 19.1143 23.1257 18.1714 22.5943 17.5714Z" />
</svg>