<svg viewBox="0 0 14 14" xmlns="http://www.w3.org/2000/svg" >
<path fill-rule="evenodd" clip-rule="evenodd" d="M0 5.04486C0 2.2672 2.26743 0 5.04539 0C7.82334 0 10.0908 2.2672 10.0908 5.04486C10.0908 6.19713 9.69763 7.25835 9.04217 8.10898C8.93886 8.24304 8.94472 8.43425 9.06441 8.55392C9.12487 8.61437 9.20687 8.64834 9.29238 8.64834H9.67659C9.94179 8.64834 10.1961 8.75368 10.3837 8.94119L13.7082 12.2654C14.0987 12.6559 14.0987 13.2891 13.7082 13.6797L13.6809 13.7069C13.2904 14.0974 12.6573 14.0974 12.2668 13.7069L8.94216 10.3826C8.7546 10.1951 8.64923 9.94072 8.64923 9.67548V9.29146C8.64923 9.20594 8.61525 9.12392 8.55478 9.06345C8.4351 8.94378 8.24391 8.93792 8.10984 9.04121C7.25913 9.69662 6.19778 10.0897 5.04539 10.0897C2.26743 10.0897 0 7.82253 0 5.04486ZM8.6491 5.04585C8.6491 3.04717 7.04414 1.44238 5.04525 1.44238C3.04637 1.44238 1.44141 3.04717 1.44141 5.04585C1.44141 7.04452 3.04637 8.64931 5.04525 8.64931C7.04414 8.64931 8.6491 7.04452 8.6491 5.04585Z" />
</svg>
