<svg viewBox="0 0 24 24" xmlns="http://www.w3.org/2000/svg">
<path d="M20.9826 4.49143C19.8512 2.04 18.8055 0 11.9826 0C5.15975 0 4.11403 2.04 2.9826 4.49143C2.0226 6.6 -0.223111 7.23429 0.0340321 10.2343C0.565461 16.4571 2.29689 16.5771 5.70832 20.04C7.74832 22.1143 6.71975 24 11.9997 24C17.2797 24 16.2512 22.1143 18.2912 20.04C21.6855 16.5771 23.4169 16.4571 23.9655 10.2343C24.2226 7.23429 21.9769 6.6 21.0169 4.49143H20.9826ZM4.6626 15.3086C3.7026 14.4514 3.2226 13.1829 2.82832 11.9829C2.79403 11.8629 2.81117 11.7429 2.79403 11.6914C2.79403 10.5429 3.56546 9.63429 4.67975 9.46286C5.93118 9.25714 7.19975 9.08571 8.45118 8.93143C9.15403 8.84571 9.66832 9.20571 9.99403 9.80571C10.3883 10.56 10.4912 11.3657 10.0455 12.12C9.44546 13.1143 8.81118 14.0914 8.09118 15C7.1826 16.1829 5.77689 16.3029 4.64546 15.3086H4.6626ZM11.9997 19.7486C11.9997 19.7486 11.9997 19.7486 11.9826 19.7486C11.9826 19.7486 11.9826 19.7486 11.9655 19.7486C10.9026 19.7657 9.13689 20.4 9.51403 18.5314C9.71975 17.4857 10.5255 16.5429 11.2969 15.6C11.4683 15.3771 11.7255 15.2743 11.9826 15.2743C12.2397 15.2743 12.4969 15.3771 12.6683 15.6C13.4397 16.5429 14.2455 17.4686 14.4512 18.5314C14.8283 20.3829 13.0626 19.7657 11.9997 19.7486ZM21.1197 11.9829C20.7255 13.1829 20.2455 14.4343 19.2855 15.3086C18.154 16.3029 16.7655 16.1657 15.8397 15C15.1369 14.0914 14.4855 13.1143 13.8855 12.12C13.4397 11.3829 13.5255 10.56 13.9369 9.80571C14.2626 9.20571 14.7769 8.84571 15.4797 8.93143C16.7483 9.08571 17.9997 9.25714 19.2512 9.46286C20.3655 9.65143 21.1369 10.56 21.1369 11.6914C21.1369 11.7429 21.1369 11.8629 21.1026 11.9829H21.1197Z" />
</svg>