<svg width="7" height="7" viewBox="0 0 7 7"  xmlns="http://www.w3.org/2000/svg" fill="white" fill-opacity="0.67">
<path fill-rule="evenodd" clip-rule="evenodd" d="M6.85355 0.853554C7.04882 0.658291 7.04882 0.341709 6.85355 0.146447C6.65829 -0.0488153 6.34171 -0.0488153 6.14645 0.146447L3.5 2.79289L0.853554 0.146447C0.658291 -0.0488153 0.341709 -0.0488153 0.146447 0.146447C-0.0488153 0.341709 -0.0488153 0.658291 0.146447 0.853554L2.79289 3.5L0.146447 6.14645C-0.0488153 6.34171 -0.0488153 6.65829 0.146447 6.85355C0.341709 7.04882 0.658291 7.04882 0.853554 6.85355L3.5 4.20711L6.14645 6.85355C6.34171 7.04882 6.65829 7.04882 6.85355 6.85355C7.04882 6.65829 7.04882 6.34171 6.85355 6.14645L4.20711 3.5L6.85355 0.853554Z"/>
</svg>
