<svg viewBox="0 0 22 20" xmlns="http://www.w3.org/2000/svg" >
<path d="M0 13.3334L1.77966 15.0001C2.76243 14.0797 4.35616 14.0797 5.33893 15.0001C6.32188 15.9206 6.3217 17.413 5.33893 18.3333L7.11858 20L17.0847 10.6666L9.96618 4.00007L0 13.3334ZM10.678 3.33333L17.7966 9.99989L21.3558 6.66661L19.5762 4.99995C18.5932 5.92049 16.9997 5.92049 16.0169 4.99995C15.0341 4.07957 15.0341 2.58704 16.0169 1.66666L14.2373 0L10.678 3.33333ZM6.94074 8.83317L9.26552 9.76028L11.2009 8.15612L10.9284 10.5363L13.1085 11.7239L10.6114 12.2707L10.0275 14.6093L8.75939 12.5676L6.21781 12.8228L7.93073 11.0103L6.94074 8.83317Z" />
</svg>
