<svg viewBox="0 0 24 24" xmlns="http://www.w3.org/2000/svg">
<path d="M7.9798 13.7393C10.4288 13.7393 12.4141 11.754 12.4141 9.30495C12.4141 6.85593 10.4288 4.8706 7.9798 4.8706C5.53077 4.8706 3.54545 6.85593 3.54545 9.30495C3.54545 11.754 5.53077 13.7393 7.9798 13.7393Z" />
<path d="M15.124 18.2558C13.5309 13.4765 2.56004 13.4765 0.81915 18.1244C0.424986 19.159 0.507104 21.6226 0.507104 21.639C3.43049 24.1189 12.4634 24.1189 15.3704 21.639C15.3704 21.639 15.4525 19.389 15.1076 18.2558H15.124Z" />
<path d="M23.5 3.85964C23.5 3.5835 23.2761 3.35964 23 3.35964H20.6423V1.00195C20.6423 0.725811 20.4185 0.501953 20.1423 0.501953H18.9087C18.6326 0.501953 18.4087 0.725811 18.4087 1.00195V3.35964H16.0346C15.7585 3.35964 15.5346 3.5835 15.5346 3.85964V5.09324C15.5346 5.36938 15.7585 5.59324 16.0346 5.59324H18.4087V7.96735C18.4087 8.24349 18.6326 8.46735 18.9087 8.46735H20.1423C20.4185 8.46735 20.6423 8.24349 20.6423 7.96735V5.59324H23C23.2761 5.59324 23.5 5.36938 23.5 5.09324V3.85964Z" />
</svg>