<svg viewBox="0 0 24 24" xmlns="http://www.w3.org/2000/svg">
<path d="M22.9004 3.90126H21.2008V6.10044C21.2008 7.20493 20.3045 8.10126 19.2 8.10126C18.0955 8.10126 17.1992 7.20493 17.1992 6.10044V3.90126H6.80082V6.10044C6.80082 7.20493 5.90449 8.10126 4.8 8.10126C3.69551 8.10126 2.79918 7.20493 2.79918 6.10044V3.90126H1.09959C0.492245 3.90126 0 4.39351 0 5.00085V21.3331C0 21.9404 0.492245 22.4327 1.09959 22.4327H22.9004C23.5078 22.4327 24 21.9404 24 21.3331V5.00085C24 4.39351 23.5078 3.90126 22.9004 3.90126ZM6.03429 17.8017C6.03429 17.8923 5.96082 17.9682 5.86776 17.9682H3.73469C3.64163 17.9682 3.56816 17.8947 3.56816 17.8017V15.6686C3.56816 15.5755 3.64163 15.5021 3.73469 15.5021H5.86776C5.96082 15.5021 6.03429 15.5755 6.03429 15.6686V17.8017ZM6.03429 13.0017C6.03429 13.0923 5.96082 13.1682 5.86776 13.1682H3.73469C3.64163 13.1682 3.56816 13.0947 3.56816 13.0017V10.8686C3.56816 10.7755 3.64163 10.7021 3.73469 10.7021H5.86776C5.96082 10.7021 6.03429 10.7755 6.03429 10.8686V13.0017ZM17.9682 10.8662C17.9682 10.7731 18.0416 10.6996 18.1347 10.6996H20.2678C20.3608 10.6996 20.4343 10.7731 20.4343 10.8662V12.9992C20.4343 13.0898 20.3608 13.1657 20.2678 13.1657H18.1347C18.0416 13.1657 17.9682 13.0923 17.9682 12.9992V10.8662ZM10.8343 17.8017C10.8343 17.8923 10.7608 17.9682 10.6678 17.9682H8.53469C8.44163 17.9682 8.36816 17.8947 8.36816 17.8017V15.6686C8.36816 15.5755 8.44163 15.5021 8.53469 15.5021H10.6678C10.7608 15.5021 10.8343 15.5755 10.8343 15.6686V17.8017ZM10.8343 13.0017C10.8343 13.0923 10.7608 13.1682 10.6678 13.1682H8.53469C8.44163 13.1682 8.36816 13.0947 8.36816 13.0017V10.8686C8.36816 10.7755 8.44163 10.7021 8.53469 10.7021H10.6678C10.7608 10.7021 10.8343 10.7755 10.8343 10.8686V13.0017ZM15.6343 17.8017C15.6343 17.8923 15.5608 17.9682 15.4678 17.9682H13.3347C13.2416 17.9682 13.1682 17.8947 13.1682 17.8017V15.6686C13.1682 15.5755 13.2416 15.5021 13.3347 15.5021H15.4678C15.5608 15.5021 15.6343 15.5755 15.6343 15.6686V17.8017ZM15.6343 13.0017C15.6343 13.0923 15.5608 13.1682 15.4678 13.1682H13.3347C13.2416 13.1682 13.1682 13.0947 13.1682 13.0017V10.8686C13.1682 10.7755 13.2416 10.7021 13.3347 10.7021H15.4678C15.5608 10.7021 15.6343 10.7755 15.6343 10.8686V13.0017ZM21.218 19.8662C20.6571 19.2539 20.1282 18.6147 19.6114 17.9682H19.3176C18.7886 18.4311 18.2669 18.9037 17.782 19.418C17.4294 19.7951 16.8637 19.227 17.2163 18.8523C17.5053 18.5437 17.809 18.2498 18.12 17.9633C18.0343 17.956 17.9657 17.8898 17.9657 17.8017V15.796C17.7943 15.5609 17.6229 15.3233 17.4539 15.0858C17.1551 14.6645 17.8482 14.2653 18.1445 14.6817C18.3404 14.956 18.5388 15.2278 18.7371 15.4996H20.2678C20.3608 15.4996 20.4343 15.5731 20.4343 15.6662V15.9306C20.6131 15.7715 20.7943 15.6147 20.9682 15.4506C21.3429 15.0955 21.9086 15.6613 21.5339 16.0164C21.1763 16.3543 20.8065 16.6776 20.4343 16.9984V17.7184C20.8702 18.2572 21.3159 18.7886 21.7837 19.3004C22.1314 19.68 21.5657 20.2482 21.218 19.8662Z"/>
<path d="M4.8 7.30044C5.46367 7.30044 6 6.76412 6 6.10044V2.76738C6 2.10371 5.46367 1.56738 4.8 1.56738C4.13878 1.56738 3.6 2.10371 3.6 2.76738V6.10044C3.6 6.76412 4.13633 7.30044 4.8 7.30044Z"/>
<path d="M19.2006 7.30044C19.8619 7.30044 20.4006 6.76412 20.4006 6.10044V2.76738C20.4006 2.10371 19.8619 1.56738 19.2006 1.56738C18.537 1.56738 18.0006 2.10371 18.0006 2.76738V6.10044C18.0006 6.76412 18.537 7.30044 19.2006 7.30044Z" />
</svg>
