<svg viewBox="0 0 24 24" xmlns="http://www.w3.org/2000/svg">
<path d="M23.2793 4.10844C22.8146 3.6468 22.1863 3.3877 21.5313 3.3877C20.8764 3.3877 20.248 3.6468 19.7834 4.10844L9.24775 14.6521L4.21593 9.62024C3.98692 9.38974 3.71459 9.20681 3.41461 9.08197C3.11462 8.95714 2.79291 8.89287 2.46799 8.89287C2.14306 8.89287 1.82135 8.95714 1.52137 9.08197C1.22138 9.20681 0.94905 9.38974 0.720048 9.62024C0.258897 10.0835 0 10.7105 0 11.3642C0 12.0178 0.258897 12.6449 0.720048 13.1081L7.49581 19.8919C7.96042 20.3535 8.58879 20.6126 9.24375 20.6126C9.89871 20.6126 10.5271 20.3535 10.9917 19.8919L23.2793 7.60432C23.7409 7.13971 24 6.51134 24 5.85638C24 5.20141 23.7409 4.57305 23.2793 4.10844Z" />
</svg>