<svg viewBox="0 0 24 24" xmlns="http://www.w3.org/2000/svg">
<path fill-rule="evenodd" clip-rule="evenodd" d="M24 12C24 18.6274 18.6274 24 12 24C5.37258 24 0 18.6274 0 12C0 5.37258 5.37258 0 12 0C18.6274 0 24 5.37258 24 12ZM10.909 4.8375C10.909 4.17476 11.4462 3.6375 12.109 3.6375H12.6181C13.2808 3.6375 13.8181 4.17476 13.8181 4.8375V11.4362L16.7516 12.695C17.35 12.9517 17.6344 13.6387 17.3927 14.2433L17.333 14.3923C17.0827 15.0186 16.3655 15.3155 15.7457 15.0496L11.63 13.2834C11.1217 13.0654 10.84 12.5368 10.9149 12.0119C10.911 11.9725 10.909 11.9325 10.909 11.892V4.8375Z" />
</svg>
