<svg viewBox="0 0 24 24" xmlns="http://www.w3.org/2000/svg">
<path d="M23.5116 9.72L20.5974 9.41143C20.4259 8.82857 20.1859 8.26286 19.9116 7.74857L21.7631 5.46857C21.9516 5.24571 21.9345 4.92 21.7288 4.71429L19.2945 2.28C19.0888 2.07429 18.7631 2.05714 18.5402 2.24571L16.2602 4.09714C15.7288 3.80571 15.1802 3.58286 14.5974 3.41143L14.2888 0.497143C14.2545 0.222857 14.0145 0 13.7231 0H10.2774C10.0031 0 9.76308 0.222857 9.72879 0.497143L9.42022 3.41143C8.83736 3.58286 8.27165 3.82286 7.75736 4.09714L5.47736 2.24571C5.2545 2.05714 4.92879 2.07429 4.72307 2.28L2.28879 4.71429C2.08307 4.92 2.06593 5.24571 2.2545 5.46857L4.10593 7.74857C3.8145 8.28 3.59165 8.82857 3.42022 9.41143L0.505932 9.72C0.231646 9.75429 0.00878906 9.99429 0.00878906 10.2857V13.7314C0.00878906 14.0057 0.231646 14.2457 0.505932 14.28L3.42022 14.5886C3.59165 15.1714 3.83165 15.7371 4.10593 16.2514L2.2545 18.5314C2.06593 18.7543 2.08307 19.08 2.28879 19.2857L4.72307 21.72C4.92879 21.9257 5.2545 21.9429 5.47736 21.7543L7.75736 19.9029C8.28879 20.1943 8.83736 20.4171 9.42022 20.5886L9.72879 23.5029C9.76308 23.7943 10.0031 24 10.2774 24H13.7231C14.0145 24 14.2545 23.7771 14.2716 23.5029L14.5802 20.5886C15.1631 20.4171 15.7288 20.1771 16.2431 19.9029L18.5231 21.7543C18.7459 21.9429 19.0716 21.9257 19.2774 21.72L21.7116 19.2857C21.9174 19.08 21.9345 18.7543 21.7459 18.5314L19.8945 16.2514C20.1859 15.72 20.4088 15.1714 20.5802 14.5886L23.4945 14.28C23.7859 14.2457 23.9916 14.0057 23.9916 13.7314V10.2857C23.9916 9.99429 23.7688 9.75429 23.4945 9.73714L23.5116 9.72ZM12.0088 16.1314C9.72879 16.1314 7.87736 14.28 7.87736 12C7.87736 9.72 9.72879 7.86857 12.0088 7.86857C14.2888 7.86857 16.1402 9.72 16.1402 12C16.1402 14.28 14.2888 16.1314 12.0088 16.1314Z" />
</svg>