<svg viewBox="0 0 24 24" xmlns="http://www.w3.org/2000/svg">
<path d="M0.000967339 16.3643C0.0401443 14.3091 0.444156 12.3159 1.10527 10.3747C1.6415 8.79301 2.33689 7.28817 3.34325 5.94943C3.97498 5.10156 4.70465 4.35782 5.66693 3.89174C6.50189 3.4802 7.35643 3.34137 8.25016 3.74547C8.87209 4.03057 9.51117 4.26857 10.1404 4.54127C11.4651 5.11892 12.7751 5.05694 14.0802 4.46938C14.5993 4.23634 15.1306 4.03553 15.6497 3.78761C16.6854 3.29674 17.6722 3.47524 18.6247 4.01322C19.6776 4.60821 20.4464 5.5007 21.1002 6.50972C22.2951 8.33685 23.037 10.3673 23.5316 12.4919C23.8769 13.9819 24.0507 15.4867 23.987 17.0163C23.9552 17.7601 23.8426 18.4964 23.539 19.1881C23.0737 20.2516 22.2926 20.6359 21.1785 20.3582C20.4978 20.1896 19.8979 19.8426 19.3446 19.4285C18.4362 18.7468 17.5547 18.0328 16.6438 17.351C15.6473 16.6048 14.587 15.9503 13.3554 15.6949C11.3133 15.2735 9.42547 15.6627 7.77269 16.9593C6.96467 17.589 6.24234 18.3278 5.48084 19.0195C4.76586 19.6641 3.99701 20.2194 3.03228 20.4078C2.72131 20.4698 2.40055 20.5045 2.08714 20.4995C1.26932 20.4797 0.791851 19.969 0.480885 19.2699C0.101358 18.4195 0.03035 17.5097 0.00831299 16.5924C-0.00392979 16.518 0.000967339 16.4412 0.000967339 16.3643ZM6.92549 13.0671C8.73497 13.0671 10.1894 11.5969 10.2017 9.76979C10.2115 7.94266 8.73742 6.44278 6.92304 6.43782C5.13314 6.43286 3.65422 7.92779 3.64687 9.74996C3.63708 11.5746 5.11111 13.0671 6.92549 13.0671ZM18.5733 8.2947C18.5782 7.88564 18.2623 7.55344 17.8681 7.54352C17.4616 7.5336 17.1188 7.87572 17.1188 8.27983C17.1213 8.68145 17.4445 9.00622 17.8436 9.00622C18.2525 9.01117 18.5708 8.6988 18.5733 8.2947ZM16.3451 10.4962C16.3475 10.0921 16.0219 9.75988 15.6277 9.75988C15.2334 9.7574 14.9004 10.0822 14.8906 10.4788C14.8809 10.8854 15.2139 11.2251 15.6228 11.2226C16.0268 11.2201 16.3402 10.9028 16.3451 10.4962ZM20.0228 11.2226C20.4317 11.2251 20.75 10.9152 20.7574 10.5111C20.7623 10.1045 20.4489 9.76979 20.0547 9.75988C19.6482 9.74748 19.3054 10.0822 19.3029 10.4912C19.3029 10.8904 19.6262 11.2176 20.0228 11.2226ZM18.5733 12.7026C18.5733 12.2985 18.2476 11.9688 17.8558 11.9713C17.4592 11.9713 17.1286 12.2985 17.1213 12.6952C17.1164 13.1067 17.4494 13.4389 17.8583 13.4364C18.2599 13.4315 18.5757 13.1117 18.5733 12.7026Z"/>
<path d="M6.92855 11.5911C5.91729 11.5936 5.09947 10.7705 5.10437 9.75657C5.10682 8.74756 5.91729 7.92201 6.91386 7.90961C7.91287 7.89969 8.73803 8.72773 8.74538 9.74666C8.75272 10.7705 7.94225 11.5911 6.92855 11.5911Z"/>
</svg>
