<svg viewBox="0 0 24 24" xmlns="http://www.w3.org/2000/svg">
<path d="M18.6631 0H8.1992C6.29282 0 4.7474 1.54543 4.7474 3.45181V17.3916C4.7474 19.2979 6.29282 20.8434 8.1992 20.8434H18.6631C20.5694 20.8434 22.1149 19.2979 22.1149 17.3916V3.45181C22.1149 1.54543 20.5694 0 18.6631 0Z" />
<path d="M8.31969 22.1024C5.63294 22.1446 3.44619 19.9578 3.48836 17.2711V3.1506C2.47029 3.39157 1.74137 4.28313 1.91005 5.34337V18.5542C1.74137 21.5 4.12691 23.8855 7.0727 24H16.6992C17.7715 23.8855 18.6691 23.1506 18.904 22.1024H8.31969Z" />
</svg>