<svg viewBox="0 0 24 24" xmlns="http://www.w3.org/2000/svg">
<path d="M11.1999 0.81502V1.63494L10.715 1.69494C7.41502 2.11984 4.57494 4.03004 2.92996 6.93992C2.29494 8.05984 1.8649 9.37004 1.69494 10.7099L1.63494 11.1999H0.81502H0V12V12.8001H0.819918H1.63984L1.69984 13.285C2.02996 15.9798 3.41975 18.445 5.57486 20.16C6.99478 21.29 8.87976 22.0751 10.7148 22.2999L11.1997 22.3599V23.1798V24H12H12.8001V23.185V22.3651L13.4101 22.2801C18.0451 21.6301 21.6301 18.0451 22.2801 13.4101L22.3651 12.8001H23.185H24V12V11.1999H23.1801H22.3602L22.3002 10.7099C22.03 8.51486 21.0651 6.46996 19.5301 4.86C17.8401 3.08498 15.7002 2.00498 13.2901 1.69494L12.8001 1.63494V0.81502V5.83008e-07H12H11.1999V0.81502ZM11.1999 5.62506V8.00008H12H12.8001V5.62506V3.25004H12.9152C13.3002 3.25004 14.4852 3.5351 15.1202 3.78C16.3053 4.23502 17.2753 4.87494 18.2003 5.79992C19.1253 6.7249 19.7652 7.69494 20.2202 8.88C20.4651 9.51502 20.7502 10.7001 20.7502 11.0851V11.2002H18.3752H16.0002V12V12.8001H18.3752H20.7502V12.91C20.7502 13.3002 20.4651 14.485 20.2202 15.12C19.7652 16.3051 19.1253 17.2751 18.2003 18.2001C17.2753 19.1251 16.3053 19.765 15.1202 20.22C14.4852 20.4649 13.3002 20.75 12.9152 20.75H12.8001V18.3749V15.9999H12H11.1999V18.3749V20.75H11.09C10.7001 20.75 9.51502 20.4649 8.88 20.22C7.69494 19.765 6.7249 19.1251 5.79992 18.2001C4.87494 17.2751 4.23502 16.3051 3.78 15.12C3.5351 14.485 3.25004 13.2999 3.25004 12.91V12.8001H5.62506H8.00008V12V11.1999H5.62506H3.25004V11.0848C3.25004 10.9149 3.38008 10.2198 3.50008 9.74988C3.73518 8.8298 4.24506 7.73976 4.84016 6.89976C5.26506 6.28971 6.2902 5.26972 6.90024 4.83967C7.43535 4.45959 8.44531 3.92474 8.97526 3.73469C9.63526 3.49959 10.6303 3.26963 11.0402 3.25469L11.2002 3.2498V5.62506H11.1999Z"/>
</svg>
