<svg viewBox="0 0 24 24" xmlns="http://www.w3.org/2000/svg">
<path d="M19.1617 19.5242L22.3729 22.7354C22.3729 22.7354 24.2246 23.044 23.9772 21.131L20.8297 17.9174"/>
<path d="M20.3991 20.6986C20.3991 20.6986 21.6337 20.2038 22.0035 19.0942L20.3991 20.6986Z" />
<path d="M2.80026 1.36778L3.60367 5.38239L18.4864 18.8444L20.0295 17.2401L7.00103 2.42103L2.80026 1.36778Z" />
<path d="M17.28 19.9927L21.2529 16.0197L21.951 16.7178L17.978 20.6908L17.28 19.9927Z" />
<path d="M4.83833 19.4005L1.62713 22.6117C1.62713 22.6117 -0.224641 22.9204 0.0227512 21.0074L3.17272 17.7962" />
<path d="M3.60091 20.571C3.60091 20.571 2.3664 20.0763 1.99654 18.9667L3.60091 20.571Z" />
<path d="M21.2005 1.24658L20.3971 5.26119L5.51682 18.7208L3.97368 17.0527L17.0022 2.29494L21.2005 1.24658Z" />
<path d="M6.00778 20.5752L2.03481 16.5998L2.7329 15.9017L6.70587 19.8747L6.00778 20.5752Z" />
</svg>
