<svg viewBox="0 0 24 24" xmlns="http://www.w3.org/2000/svg">
<path d="M22.3729 22.9812L19.1672 19.6733L17.978 20.8897L17.28 20.1756L18.4864 19.0011L11.9188 12.9243L5.51102 18.8327L6.70587 20.0549L6.00778 20.7715L4.83833 19.57L1.62713 22.8547C1.62713 22.8547 -0.224641 23.1704 0.0227512 21.2136L3.20194 17.8996L2.03481 16.705L2.7329 15.9909L3.91953 17.2047L9.53059 10.7146L3.60367 5.23058L2.80026 1.12397L7.00103 2.20136L11.9313 7.93773L17.0022 2.07238L21.2005 1L20.3971 5.10661L14.3167 10.7132L20.0295 17.36L21.2529 16.1116L21.951 16.8257L20.7778 18.0258L23.9772 21.3401C24.2246 23.2969 22.3729 22.9812 22.3729 22.9812Z"/>
</svg>
