<svg viewBox="0 0 24 24" xmlns="http://www.w3.org/2000/svg">
<path d="M4.20048 20.8571C7.44086 20.5314 9.7897 17.3767 11.0927 16.348C11.8642 15.748 12.9101 15.3194 14.2302 14.8564L15.276 14.4964C15.5504 14.4107 15.8247 14.4107 16.099 14.4964C16.5791 14.6678 17.3506 14.9422 17.8135 14.9936C20.7624 15.045 22.6312 14.9079 23.7285 14.7879C24.0542 14.7536 24.1056 14.2049 23.7799 14.1021L18.6879 12.3876L18.1907 13.142L17.8135 12.7476V11.2217L18.1907 10.8274L18.6879 11.5818L23.7799 9.86729C24.1056 9.76442 24.0542 9.21579 23.7285 9.1815C22.6312 9.04434 20.7624 8.92433 17.8135 8.97576C17.3506 9.0272 16.5619 9.30151 16.099 9.47296C15.8247 9.57583 15.5504 9.57583 15.276 9.47296L14.2302 9.11292C12.8929 8.65001 11.8471 8.22139 11.0927 7.62132C9.7897 6.59263 7.44086 3.43798 4.20048 3.11223C2.76032 3.00936 1.4916 2.88934 0.891531 3.0265C0.377186 3.16366 0 3.67801 0 4.27808C0 4.98101 0.480055 5.56394 1.09727 5.56394C1.4916 5.56394 2.21168 5.56394 2.21168 5.56394C7.8009 5.52965 7.61231 9.91873 13.0987 11.2217C13.253 11.256 13.3387 11.4446 13.2872 11.6161C13.253 11.7532 13.2187 11.8904 13.2187 12.0104C13.2187 12.1304 13.2358 12.2676 13.2872 12.4047C13.3387 12.5762 13.253 12.7476 13.0987 12.7991C7.61231 14.1021 7.8009 18.4911 2.21168 18.4569C2.21168 18.4569 1.4916 18.4569 1.09727 18.4569C0.480055 18.4569 0 19.0398 0 19.7427C0 20.3428 0.377186 20.8743 0.891531 20.9771C1.4916 21.1143 2.76032 20.9771 4.20048 20.8914V20.8571Z" />
</svg>