<svg viewBox="0 0 24 24" xmlns="http://www.w3.org/2000/svg">
<path d="M24 16.1483L18.0343 11.1254L21.4971 5.65682L14.9486 7.2854L14.7257 0.102539L11.1257 6.87397L5.24571 2.27968L6.66857 9.70254H0L5.57143 13.954L2.07429 20.8283L7.85143 18.6511L7.95429 23.8968L12.6514 19.7483L18.2229 22.474L17.4514 17.0225L24 16.1483ZM12.5829 17.4854L9.90857 19.6797L9.87429 16.3711L5.52 17.7083L8.12571 13.9883L5.38286 11.2625H8.72571L8.34857 7.47397L11.2457 8.98254L13.3886 5.99968L13.6971 9.18825L17.2971 8.7254L15.4457 11.9311L18.5314 14.6568L14.9486 15.2568L15.48 18.8225L12.6 17.4683L12.5829 17.4854ZM12.2229 14.914L11.0229 15.8911V14.4168L9.05143 15.0168L10.2171 13.354L8.98286 12.1368H10.4743L10.3029 10.4397L11.5886 11.1083L12.5486 9.77111L12.6857 11.194L14.2971 10.9883L13.4743 12.4283L14.8457 13.6454L13.2514 13.9197L13.4914 15.514L12.2057 14.914H12.2229Z" />
</svg>