<svg viewBox="0 0 24 24" xmlns="http://www.w3.org/2000/svg">
<path d="M8.06499 11.5286C10.7068 11.5286 12.8483 9.38705 12.8483 6.74528C12.8483 4.1035 10.7068 1.96191 8.06499 1.96191C5.42321 1.96191 3.28163 4.1035 3.28163 6.74528C3.28163 9.38705 5.42321 11.5286 8.06499 11.5286Z" />
<path d="M18.0432 11.4258C19.9559 11.4258 21.5064 9.87523 21.5064 7.96255C21.5064 6.04986 19.9559 4.49932 18.0432 4.49932C16.1305 4.49932 14.58 6.04986 14.58 7.96255C14.58 9.87523 16.1305 11.4258 18.0432 11.4258Z" />
<path d="M15.7801 16.3806C14.0485 11.2372 2.2358 11.2372 0.349891 16.2263C-0.0787255 17.3578 0.00699782 20.0152 0.00699782 20.0324C3.16162 22.707 12.8998 22.707 16.0544 20.0324C16.0544 20.0152 16.1573 17.615 15.7801 16.3977V16.3806Z" />
<path d="M23.8038 14.8376C22.9123 12.1801 18.4032 11.3915 15.2657 12.403C16.5002 13.2945 17.4088 14.4261 17.8546 15.7634C18.1461 16.7235 18.2318 18.0779 18.2318 19.038C20.5634 19.0209 22.8608 18.5237 23.9924 17.5464C23.9924 17.5464 24.061 15.7462 23.7866 14.8376H23.8038Z" />
</svg>