<svg viewBox="0 0 24 24" xmlns="http://www.w3.org/2000/svg">
<path fill-rule="evenodd" clip-rule="evenodd" d="M0.504877 11.0323H10.6971V7.94307L10.6989 7.94093C10.6993 6.11127 11.4465 4.44918 12.6499 3.24529C13.8537 2.04159 15.5168 1.29395 17.3472 1.29395L17.3482 1.29199H17.3506C19.1802 1.29238 20.8423 2.0414 22.0462 3.2447C23.25 4.4486 23.9976 6.11165 23.9976 7.94211H24V11.06V11.06C24 11.3192 23.7898 11.5294 23.5306 11.5294V11.5294H21.6145V11.5294C21.3553 11.5294 21.1449 11.3192 21.1449 11.06V11.06V7.90675L21.1472 7.905C21.1468 6.86359 20.7185 5.91499 20.0296 5.22631C19.3406 4.53669 18.3914 4.10894 17.3492 4.10836L17.3461 4.11012C16.3043 4.11051 15.3557 4.53609 14.6664 5.22496C13.9772 5.91402 13.5498 6.86419 13.5498 7.90598L13.5516 11.0325H16.2834C16.5611 11.0325 16.7883 11.2598 16.7883 11.5374V22.2038C16.7883 22.4816 16.5611 22.7083 16.2834 22.7083H0.504877C0.226754 22.7083 0 22.4816 0 22.2038V11.5372C0 11.2596 0.226754 11.0323 0.504877 11.0323ZM8.58524 16.8686L9.38562 20.5615L7.1919 20.5703L7.83584 16.8277C7.23662 16.6361 6.80168 16.0744 6.80168 15.4114C6.80168 14.5907 7.46787 13.9245 8.28878 13.9245C9.10946 13.9245 9.77565 14.5907 9.77565 15.4114C9.77585 16.1307 9.26415 16.7309 8.58524 16.8686Z" />
</svg>
