<svg viewBox="0 0 24 24" xmlns="http://www.w3.org/2000/svg">
<path d="M7.805 12.3231C10.3605 12.3231 12.4321 10.2515 12.4321 7.69599C12.4321 5.14049 10.3605 3.06884 7.805 3.06884C5.2495 3.06884 3.17786 5.14049 3.17786 7.69599C3.17786 10.2515 5.2495 12.3231 7.805 12.3231Z" />
<path d="M15.2598 17.036C13.5975 12.0489 2.14961 12.0489 0.333026 16.8989C-0.0782754 17.9785 0.00741244 20.5492 0.00741244 20.5663C3.0579 23.1541 12.4836 23.1541 15.5169 20.5663C15.5169 20.5663 15.6026 18.2185 15.2427 17.036H15.2598Z" />
<path d="M24 1.99219C24 1.71605 23.7761 1.49219 23.5 1.49219H16.1883C15.9121 1.49219 15.6883 1.71604 15.6883 1.99219V3.3229C15.6883 3.59904 15.9121 3.8229 16.1883 3.8229H23.5C23.7761 3.8229 24 3.59904 24 3.3229V1.99219Z" />
</svg>