<svg viewBox="0 0 24 24" xmlns="http://www.w3.org/2000/svg">
<path fill-rule="evenodd" clip-rule="evenodd" d="M0 8.64864C0 3.88731 3.88672 0.000976562 8.64858 0.000976562C13.4104 0.000976562 17.2972 3.88731 17.2972 8.64864C17.2972 10.6238 16.6232 12.4429 15.4997 13.901C15.3226 14.1308 15.3326 14.4586 15.5378 14.6637C15.6414 14.7673 15.782 14.8256 15.9286 14.8256H16.5872C17.0418 14.8256 17.4777 15.0061 17.7993 15.3276L23.498 21.0258C24.1673 21.6951 24.1673 22.7805 23.498 23.4501L23.4512 23.4967C22.7818 24.1661 21.6966 24.1661 21.0272 23.4967L15.3282 17.7984C15.0067 17.4769 14.8261 17.0409 14.8261 16.5862V15.928C14.8261 15.7814 14.7679 15.6408 14.6642 15.5371C14.4591 15.332 14.1313 15.3219 13.9015 15.499C12.4433 16.6225 10.6239 17.2963 8.64858 17.2963C3.88672 17.2963 0 13.41 0 8.64864ZM14.8259 8.65034C14.8259 5.22429 12.0747 2.47344 8.64834 2.47344C5.22195 2.47344 2.4708 5.22429 2.4708 8.65034C2.4708 12.0764 5.22195 14.8272 8.64834 14.8272C12.0747 14.8272 14.8259 12.0764 14.8259 8.65034Z" />
</svg>
