<svg viewBox="0 0 24 24" xmlns="http://www.w3.org/2000/svg">
<path d="M0 11.1996H24V12.7996H0V11.1996Z"/>
<path d="M16.6525 9.35543L17.1589 9.36503L17.4205 8.91143L12.2677 0.240234H11.7349L6.87494 8.45063L6.87254 8.45303L6.87014 8.45783L6.61094 8.90903L6.74294 9.13463L6.87014 9.35543H16.6525ZM8.8 7.99961L12 2.39961L15.2 7.99961H8.8Z"/>
<path d="M17.1438 15.5498L17.1486 15.545L17.4078 15.0962L17.2758 14.8706L17.1462 14.6498H7.36623L6.85983 14.6402L6.72543 14.8754L6.59823 15.0962L11.751 23.7602H12.2838L17.1438 15.5498ZM8.79979 15.9996H15.1998L11.9998 21.5996L8.79979 15.9996Z"/>
</svg>
