<svg viewBox="0 0 24 24" xmlns="http://www.w3.org/2000/svg">
<path d="M20.4798 3.51252C16.6865 -0.280775 10.9977 -0.981152 6.50406 1.31589L2.61036 0.916721L0.714937 0.715914L0.915744 2.61134L1.31491 6.50504C-0.982129 10.9963 -0.281752 16.6874 3.51154 20.4807C8.20358 25.1728 15.7902 25.1728 20.4822 20.4807C25.1742 15.7887 25.1718 8.2021 20.4798 3.51252ZM19.0814 19.0824C15.1877 22.9761 8.79865 22.9761 4.9074 19.0824C2.412 16.587 1.61367 13.1953 2.21364 9.99957L3.11238 10.6975C3.01198 11.0967 3.01198 11.4958 3.01198 11.9954C3.01198 15.5879 5.10821 18.6833 8.10317 20.0816L10.4002 17.7845C11.6981 18.0833 13.0964 18.0833 14.2939 17.4858L12.5968 16.1879L3.11238 8.70167L2.51241 3.21131L15.8881 16.587C15.9885 16.4866 16.0889 16.3862 16.2873 16.2883C16.3877 16.1879 16.4881 16.0875 16.5861 15.8891L3.21033 2.51338L8.8011 3.11336L9.09986 3.51252L14.1911 10.1L16.1869 12.6958L17.4848 14.3928C17.9844 13.1953 18.0848 11.797 17.7835 10.4991L20.0806 8.2021C18.6823 5.10673 15.5894 3.0105 11.9944 3.0105C11.4949 3.0105 11.0957 3.0105 10.5961 3.11091L9.99615 2.21217C13.1895 1.51424 16.5836 2.41298 19.079 4.90838C22.9751 8.80208 22.9751 15.1912 19.0814 19.0824Z" />
<path d="M20.4794 9.10292L18.8828 10.6996C19.2819 12.8962 18.584 15.1908 16.9873 16.8879C15.2903 18.5849 12.9957 19.1849 10.799 18.7833L9.20239 20.38C12.2978 21.4771 15.8902 20.6787 18.3856 18.1833C20.8786 15.6928 21.579 12.2987 20.4794 9.10292Z" />
</svg>
