<svg viewBox="0 0 24 24" xmlns="http://www.w3.org/2000/svg">
<path d="M0 15.746L2 17.619C3.10446 16.5847 4.89551 16.5847 5.99996 17.619C7.10462 18.6535 7.10441 20.3307 5.99996 21.365L7.99997 23.238L19.2 12.749L11.2001 5.25705L0 15.746ZM12.0001 4.50776L20 11.9997L24 8.25375L22 6.38073C20.8953 7.41525 19.1045 7.41525 18 6.38073C16.8956 5.3464 16.8956 3.66907 18 2.63474L16 0.761719L12.0001 4.50776ZM7.80011 10.6886L10.4127 11.7305L12.5877 9.92768L12.2815 12.6026L14.7315 13.9372L11.9252 14.5517L11.269 17.1799L9.84393 14.8854L6.98767 15.1721L8.91266 13.1353L7.80011 10.6886Z" />
</svg>
